<svg width="100" height="52" viewBox="0 0 100 52" fill="none" xmlns="http://www.w3.org/2000/svg">
<rect y="6" width="98.5221" height="40" rx="20" fill="url(#paint0_linear_39_214)"/>
<path d="M36.7033 26.3985C36.7033 17.3418 29.3824 10 20.3516 10C11.3209 10 4 17.3418 4 26.3985C4 35.4551 11.3209 42.7969 20.3516 42.7969C29.3824 42.7969 36.7033 35.4551 36.7033 26.3985Z" fill="#C2C2C2"/>
<path d="M33.1885 22.2605C33.1885 19.0442 30.5885 16.4368 27.3813 16.4368C24.1742 16.4368 21.5742 19.0442 21.5742 22.2605C21.5742 25.4769 24.1742 28.0843 27.3813 28.0843C30.5885 28.0843 33.1885 25.4769 33.1885 22.2605Z" fill="#8A8A8A"/>
<path d="M20.3516 18.889C20.3516 17.3654 19.12 16.1304 17.6008 16.1304C16.0816 16.1304 14.8501 17.3654 14.8501 18.889C14.8501 20.4125 16.0816 21.6476 17.6008 21.6476C19.12 21.6476 20.3516 20.4125 20.3516 18.889Z" fill="#8A8A8A"/>
<path d="M17.6007 36.5134H17.4479C16.6883 36.5134 16.0725 37.131 16.0725 37.8927C16.0725 38.6545 16.6883 39.272 17.4479 39.272H17.6007C18.3603 39.272 18.9761 38.6545 18.9761 37.8927C18.9761 37.131 18.3603 36.5134 17.6007 36.5134Z" fill="#8A8A8A"/>
<mask id="mask0_39_214" style="mask-type:luminance" maskUnits="userSpaceOnUse" x="42" y="16" width="49" height="20">
<path d="M90.4436 16H42V35.7701H90.4436V16Z" fill="white"/>
</mask>
<g mask="url(#mask0_39_214)">
<path d="M43.3754 17.9924L43.4629 19.284L44.7507 19.3717L43.4629 19.4595L43.3754 20.7511L43.2878 19.4595L42 19.3717L43.2878 19.284L43.3754 17.9924Z" fill="#D9D9D9"/>
<path d="M50.7871 22.2834L50.9086 24.2208L52.6973 24.3524L50.9086 24.4841L50.7871 26.4214L50.6656 24.4841L48.8768 24.3524L50.6656 24.2208L50.7871 22.2834Z" fill="#D9D9D9"/>
<path d="M44.4451 29.0269L44.5131 30.1749L45.5148 30.2529L44.5131 30.3309L44.4451 31.479L44.3771 30.3309L43.3754 30.2529L44.3771 30.1749L44.4451 29.0269Z" fill="#D9D9D9"/>
<path d="M73.6335 33.0115L73.7113 34.303L74.8561 34.3908L73.7113 34.4786L73.6335 35.7701L73.5557 34.4786L72.4109 34.3908L73.5557 34.303L73.6335 33.0115Z" fill="#D9D9D9"/>
<path d="M77.3776 24.8889L77.4991 26.8262L79.2878 26.9579L77.4991 27.0895L77.3776 29.0268L77.2561 27.0895L75.4673 26.9579L77.2561 26.8262L77.3776 24.8889Z" fill="#D9D9D9"/>
<path d="M89.3739 26.4214L89.4419 27.5694L90.4436 27.6474L89.4419 27.7254L89.3739 28.8735L89.3059 27.7254L88.3041 27.6474L89.3059 27.5694L89.3739 26.4214Z" fill="#D9D9D9"/>
<path d="M83.9488 20.9043L84.0703 22.8416L85.859 22.9733L84.0703 23.1049L83.9488 25.0422L83.8273 23.1049L82.0386 22.9733L83.8273 22.8416L83.9488 20.9043Z" fill="#D9D9D9"/>
<path d="M71.3413 16L71.5066 18.6548L73.9392 18.8352L71.5066 19.0157L71.3413 21.6705L71.1759 19.0157L68.7433 18.8352L71.1759 18.6548L71.3413 16Z" fill="#D9D9D9"/>
<path d="M57.8932 19.5249L57.9612 20.6729L58.9629 20.751L57.9612 20.829L57.8932 21.977L57.8252 20.829L56.8234 20.751L57.8252 20.6729L57.8932 19.5249Z" fill="#D9D9D9"/>
<path d="M59.8034 30.2529L59.9249 32.1902L61.7137 32.3219L59.9249 32.4535L59.8034 34.3909L59.6819 32.4535L57.8932 32.3219L59.6819 32.1902L59.8034 30.2529Z" fill="#D9D9D9"/>
<path d="M62.707 24.2759L62.8285 26.2132L64.6172 26.3448L62.8285 26.4765L62.707 28.4138L62.5855 26.4765L60.7968 26.3448L62.5855 26.2132L62.707 24.2759Z" fill="#D9D9D9"/>
<path d="M70.2715 24.5823L70.3395 25.7303L71.3412 25.8083L70.3395 25.8863L70.2715 27.0344L70.2035 25.8863L69.2018 25.8083L70.2035 25.7303L70.2715 24.5823Z" fill="#D9D9D9"/>
</g>
<defs>
<linearGradient id="paint0_linear_39_214" x1="49.2611" y1="6" x2="49.2611" y2="46" gradientUnits="userSpaceOnUse">
<stop stop-color="#0066FE"/>
<stop offset="0.53"/>
</linearGradient>
</defs>
</svg>
