<svg width="100" height="52" viewBox="0 0 100 52" fill="none" xmlns="http://www.w3.org/2000/svg">
<rect y="6" width="98.5221" height="40" rx="20" fill="#00C6FF"/>
<path d="M15.2726 34.4416C18.7369 34.4416 21.5453 31.6507 21.5453 28.2079C21.5453 24.7651 18.7369 21.9741 15.2726 21.9741C11.8084 21.9741 9 24.7651 9 28.2079C9 31.6507 11.8084 34.4416 15.2726 34.4416Z" fill="white"/>
<path d="M28.1981 36.0001C37.4012 36.0001 44.8618 34.4883 44.8618 32.6234C44.8618 30.7586 37.4012 29.2468 28.1981 29.2468C18.995 29.2468 11.5344 30.7586 11.5344 32.6234C11.5344 34.4883 18.995 36.0001 28.1981 36.0001Z" fill="white"/>
<path d="M42.264 34.1817C44.1186 34.1817 45.6221 32.7281 45.6221 30.935C45.6221 29.1418 44.1186 27.6882 42.264 27.6882C40.4093 27.6882 38.9059 29.1418 38.9059 30.935C38.9059 32.7281 40.4093 34.1817 42.264 34.1817Z" fill="white"/>
<path d="M34.5342 33.5326C37.8585 33.5326 40.5534 31.0033 40.5534 27.8832C40.5534 24.7632 37.8585 22.2339 34.5342 22.2339C31.2098 22.2339 28.515 24.7632 28.515 27.8832C28.515 31.0033 31.2098 33.5326 34.5342 33.5326Z" fill="white"/>
<path d="M24.3966 31.8441C28.6307 31.8441 32.0632 28.2973 32.0632 23.9221C32.0632 19.5468 28.6307 16 24.3966 16C20.1625 16 16.73 19.5468 16.73 23.9221C16.73 28.2973 20.1625 31.8441 24.3966 31.8441Z" fill="white"/>
<path d="M77.4412 8.64136H77.2933C68.2657 8.64136 60.9474 16.1416 60.9474 25.3935C60.9474 34.6455 68.2657 42.1457 77.2933 42.1457H77.4412C86.4688 42.1457 93.7871 34.6455 93.7871 25.3935C93.7871 16.1416 86.4688 8.64136 77.4412 8.64136Z" fill="white" fill-opacity="0.6"/>
<path d="M94.6747 25.3935C94.6747 15.6392 86.959 7.73169 77.4412 7.73169C67.9235 7.73169 60.2078 15.6392 60.2078 25.3935C60.2078 35.1478 67.9235 43.0553 77.4412 43.0553C86.959 43.0553 94.6747 35.1478 94.6747 25.3935Z" fill="white" fill-opacity="0.7"/>
<path d="M78.1809 4.5481H77.885C66.7333 4.5481 57.693 13.8131 57.693 25.242V25.5452C57.693 36.9741 66.7333 46.2391 77.885 46.2391H78.1809C89.3326 46.2391 98.3729 36.9741 98.3729 25.5452V25.242C98.3729 13.8131 89.3326 4.5481 78.1809 4.5481Z" fill="white" fill-opacity="0.8"/>
<path d="M100 25.5451C100 12.7765 89.9001 2.42554 77.4412 2.42554C64.9823 2.42554 54.8824 12.7765 54.8824 25.5451C54.8824 38.3136 64.9823 48.6646 77.4412 48.6646C89.9001 48.6646 100 38.3136 100 25.5451Z" fill="white" fill-opacity="0.4"/>
<path d="M100 25.4694C100 11.9892 89.3372 1.06128 76.1838 1.06128C63.0305 1.06128 52.3676 11.9892 52.3676 25.4694C52.3676 38.9497 63.0305 49.8776 76.1838 49.8776C89.3372 49.8776 100 38.9497 100 25.4694Z" fill="white" fill-opacity="0.4"/>
<path d="M99.9999 26C99.9999 11.6406 88.6417 0 74.6305 0C60.6193 0 49.261 11.6406 49.261 26C49.261 40.3594 60.6193 52 74.6305 52C88.6417 52 99.9999 40.3594 99.9999 26Z" fill="white" fill-opacity="0.2"/>
<path d="M93.1955 25.4694C93.1955 16.5104 86.109 9.2478 77.3673 9.2478C68.6256 9.2478 61.5391 16.5104 61.5391 25.4694C61.5391 34.4283 68.6256 41.691 77.3673 41.691C86.109 41.691 93.1955 34.4283 93.1955 25.4694Z" fill="#FF8A00"/>
</svg>
